<svg width="19" height="17" viewBox="0 0 19 17" fill="none" xmlns="http://www.w3.org/2000/svg">
<path d="M8.77552 16.6839C8.96534 16.757 9.14056 16.7935 9.30118 16.7935C9.4618 16.7935 9.64432 16.7497 9.84874 16.662C12.039 15.7713 13.8423 14.6324 15.2586 13.2453C16.5436 11.9749 17.4489 10.5805 17.9745 9.06191C18.4418 7.64556 18.544 6.26571 18.2812 4.92236C18.1643 4.07547 17.8614 3.30889 17.3722 2.62261C16.8831 1.93634 16.2698 1.39243 15.5324 0.990886C14.795 0.589342 13.9956 0.381269 13.1341 0.366667C11.7323 0.410473 10.4474 0.841219 9.27928 1.65891L9.30118 1.63701C8.74632 1.25736 8.15496 0.958032 7.52709 0.739008C6.87002 0.505383 6.19834 0.381269 5.51207 0.366667H5.49017C4.61407 0.366667 3.80003 0.571089 3.04805 0.979935C2.29607 1.38878 1.6755 1.93999 1.18635 2.63356C0.697194 3.32714 0.401512 4.09737 0.299301 4.94427V4.96617C0.0364722 6.32412 0.145984 7.71127 0.627837 9.12762C1.13889 10.6462 2.03689 12.0333 3.32183 13.2891C4.75279 14.6762 6.57068 15.8078 8.77552 16.6839ZM2.00769 5.33851C2.06609 4.75445 2.25591 4.22149 2.57715 3.73963C2.89838 3.25778 3.31453 2.87814 3.82558 2.60071C4.33664 2.32328 4.8915 2.18457 5.49017 2.18457C6.77511 2.27217 7.89213 2.70292 8.84123 3.47681H8.81933L9.30118 3.82724L9.80494 3.4549C10.2722 3.07526 10.7832 2.78323 11.3381 2.57881C11.9076 2.34518 12.4989 2.21377 13.1122 2.18457H13.1341C13.7182 2.19917 14.2621 2.34518 14.7658 2.62261C15.2696 2.90004 15.6857 3.27603 16.0143 3.75059C16.3428 4.22514 16.5363 4.74714 16.5947 5.31661V5.33851C16.7991 6.40443 16.6896 7.51415 16.2661 8.66767C15.8135 9.89421 15.0323 11.0258 13.9226 12.0625C12.7107 13.2307 11.1702 14.1944 9.30118 14.9537C7.43218 14.2236 5.88441 13.2745 4.65788 12.1063C3.54815 11.0696 2.76697 9.93071 2.31432 8.68957C1.89087 7.53605 1.78866 6.41903 2.00769 5.33851Z" fill="#030712"/>
</svg>
