<svg width="19" height="19" viewBox="0 0 19 19" fill="none" xmlns="http://www.w3.org/2000/svg">
<path d="M17.3549 11.192C17.1642 11.192 16.9956 11.258 16.8489 11.39C16.7022 11.522 16.6289 11.698 16.6289 11.918V15.592C16.6289 15.9 16.5152 16.1604 16.2879 16.373C16.0606 16.5857 15.8076 16.692 15.5289 16.692H2.68091C2.37291 16.692 2.11257 16.5784 1.89991 16.351C1.68724 16.1237 1.58091 15.8707 1.58091 15.592V11.918C1.58091 11.7274 1.51491 11.5587 1.38291 11.412C1.25091 11.2654 1.07491 11.192 0.854906 11.192C0.634906 11.192 0.458906 11.2507 0.326906 11.368C0.194906 11.4854 0.128906 11.6394 0.128906 11.83V15.504C0.128906 15.9587 0.242573 16.3804 0.469906 16.769C0.69724 17.1577 1.00524 17.4694 1.39391 17.704C1.78257 17.9387 2.21157 18.056 2.68091 18.056H15.5289C15.9836 18.056 16.4052 17.9424 16.7939 17.715C17.1826 17.4877 17.4942 17.1797 17.7289 16.791C17.9636 16.4024 18.0809 15.9734 18.0809 15.504V11.83C18.0809 11.654 18.0076 11.5037 17.8609 11.379C17.7142 11.2544 17.5456 11.192 17.3549 11.192ZM4.99091 5.86803L8.37891 2.48003V11.83C8.37891 12.0207 8.44491 12.1894 8.57691 12.336C8.70891 12.4827 8.88857 12.556 9.11591 12.556C9.34324 12.556 9.51924 12.4937 9.64391 12.369C9.76857 12.2444 9.83091 12.0647 9.83091 11.83V2.48003L13.2409 5.86803C13.3582 5.98536 13.5049 6.04403 13.6809 6.04403C13.7689 6.04403 13.8569 6.0257 13.9449 5.98903C14.0329 5.95236 14.0989 5.91203 14.1429 5.86803C14.2896 5.73603 14.3629 5.57103 14.3629 5.37303C14.3629 5.17503 14.2896 5.0027 14.1429 4.85603L9.56691 0.280031C9.53757 0.250696 9.50091 0.221363 9.45691 0.19203C9.41291 0.162697 9.39091 0.133364 9.39091 0.104031C9.20024 0.00136375 9.01691 0.00136375 8.84091 0.104031C8.78224 0.104031 8.73457 0.122364 8.69791 0.159031C8.66124 0.195698 8.64291 0.236031 8.64291 0.280031L4.06691 4.85603C3.92024 5.0027 3.84691 5.17503 3.84691 5.37303C3.84691 5.57103 3.92024 5.73603 4.06691 5.86803C4.21357 6.00003 4.36757 6.0697 4.52891 6.07703C4.69024 6.08436 4.84424 6.0147 4.99091 5.86803Z" fill="#030712"/>
</svg>
