<svg width="20" height="25" viewBox="0 0 20 25" fill="none" xmlns="http://www.w3.org/2000/svg">
<path d="M18.6982 4.23403L10.0402 0.984028C9.78016 0.88003 9.59816 0.88003 9.49416 0.984028L0.810156 4.23403C0.602156 4.28603 0.441823 4.3857 0.329156 4.53303C0.21649 4.68036 0.160156 4.83203 0.160156 4.98803V12.58C0.160156 14.5214 0.836156 16.428 2.18816 18.3C3.21082 19.6694 4.55416 20.978 6.21816 22.226C7.10216 22.8847 8.06416 23.5 9.10416 24.072L9.26016 24.176C9.34682 24.2454 9.45949 24.28 9.59816 24.28C9.73682 24.28 9.84082 24.2454 9.91016 24.176L10.0402 24.098C11.0282 23.5607 11.9642 22.9627 12.8482 22.304C14.5468 21.056 15.9075 19.7387 16.9302 18.352C18.3168 16.4627 19.0102 14.5387 19.0102 12.58V4.98803C19.1142 4.83203 19.1315 4.68036 19.0622 4.53303C18.9928 4.3857 18.8715 4.28603 18.6982 4.23403ZM17.5022 12.58C17.5022 14.14 16.9388 15.7 15.8122 17.26C14.9455 18.4387 13.7928 19.574 12.3542 20.666C11.4355 21.3594 10.5168 21.9487 9.59816 22.434C8.71416 21.966 7.79549 21.3767 6.84216 20.666C5.43816 19.574 4.31149 18.4387 3.46216 17.26C2.35282 15.7 1.79816 14.14 1.79816 12.58V5.53403L9.70216 2.62203L17.5022 5.53403V12.58ZM6.99816 12.034C6.82482 11.878 6.62549 11.8 6.40016 11.8C6.17482 11.8 5.97549 11.878 5.80216 12.034C5.62882 12.19 5.54649 12.385 5.55516 12.619C5.56382 12.853 5.64616 13.0567 5.80216 13.23L7.96016 15.388C8.15082 15.544 8.33282 15.622 8.50616 15.622C8.61016 15.622 8.71416 15.596 8.81816 15.544C8.92216 15.492 9.00016 15.44 9.05216 15.388L13.3942 11.072C13.5502 10.8987 13.6282 10.695 13.6282 10.461C13.6282 10.227 13.5502 10.032 13.3942 9.87603C13.2382 9.72003 13.0388 9.6377 12.7962 9.62903C12.5535 9.62036 12.3542 9.7027 12.1982 9.87603L8.61016 13.542L6.99816 12.034Z" fill="#6B7280"/>
</svg>
