<svg width="16" height="16" viewBox="0 0 16 16" fill="none" xmlns="http://www.w3.org/2000/svg">
<g clip-path="url(#clip0_6314_7706)">
<path d="M8.65516 1.86004H2.41516C2.10516 1.86004 1.81516 1.93504 1.54516 2.08504C1.27516 2.23504 1.06016 2.44004 0.900156 2.70004C0.740156 2.96004 0.660156 3.24004 0.660156 3.54004V13.545C0.660156 13.645 0.680156 13.725 0.720156 13.785C0.760156 13.845 0.825156 13.89 0.915156 13.92C1.09516 13.98 1.24016 13.98 1.35016 13.92L5.47516 11.55L9.60016 13.92C9.63016 13.95 9.66016 13.9675 9.69016 13.9725C9.72016 13.9775 9.77516 13.98 9.85516 13.98C9.97516 13.98 10.0552 13.96 10.0952 13.92C10.1652 13.89 10.2252 13.835 10.2752 13.755C10.3252 13.675 10.3502 13.605 10.3502 13.545V3.54004C10.3702 3.24004 10.3052 2.96004 10.1552 2.70004C10.0052 2.44004 9.79516 2.23504 9.52516 2.08504C9.25516 1.93504 8.96516 1.86004 8.65516 1.86004ZM9.40516 12.735L5.73016 10.605C5.70016 10.575 5.66766 10.5575 5.63266 10.5525C5.59766 10.5475 5.54516 10.545 5.47516 10.545C5.40516 10.545 5.35266 10.5475 5.31766 10.5525C5.28266 10.5575 5.25016 10.575 5.22016 10.605L1.53016 12.735V3.54004C1.53016 3.33004 1.60766 3.15254 1.76266 3.00754C1.91766 2.86254 2.09016 2.79004 2.28016 2.79004H8.53516C8.74516 2.79004 8.92266 2.86754 9.06766 3.02254C9.21266 3.17754 9.28516 3.35004 9.28516 3.54004V12.735H9.40516Z" fill="#EE403D"/>
</g>
<defs>
<clipPath id="clip0_6314_7706">
<rect width="15" height="15" fill="white" transform="matrix(1 0 0 -1 0.5 15.42)"/>
</clipPath>
</defs>
</svg>
