<svg width="18" height="18" viewBox="0 0 18 18" fill="none" xmlns="http://www.w3.org/2000/svg">
<path d="M13.9368 4.15103L8.97278 1.32903C8.68945 1.14769 8.37212 1.05703 8.02078 1.05703C7.66945 1.05703 7.35211 1.14769 7.06878 1.32903L2.10478 4.15103C1.79878 4.32103 1.55511 4.55619 1.37378 4.85653C1.19245 5.15686 1.08478 5.48836 1.05078 5.85103V11.529C1.05078 11.8804 1.13861 12.2062 1.31428 12.5065C1.48995 12.8069 1.73078 13.0477 2.03678 13.229L7.00078 16.051C7.34078 16.2437 7.64678 16.34 7.91878 16.34C8.10011 16.34 8.26445 16.3174 8.41178 16.272C8.55911 16.2267 8.70078 16.153 8.83678 16.051L13.8008 13.229C14.0954 13.0477 14.3334 12.804 14.5148 12.498C14.6961 12.192 14.7868 11.869 14.7868 11.529V5.85103C14.8208 5.51103 14.7584 5.18803 14.5998 4.88203C14.4411 4.57603 14.2201 4.33236 13.9368 4.15103ZM7.56178 2.24703C7.57311 2.24703 7.58445 2.24136 7.59578 2.23003C7.77711 2.13936 7.90745 2.09403 7.98678 2.09403C8.06611 2.09403 8.19645 2.13936 8.37778 2.23003L13.3078 5.00103L7.98678 8.04403L2.68278 5.00103L7.56178 2.24703ZM2.59778 12.294C2.47311 12.226 2.37111 12.1184 2.29178 11.971C2.21245 11.8237 2.17278 11.6764 2.17278 11.529V5.91903L7.49378 8.97903V15.065L2.59778 12.294ZM13.3758 12.294L8.54778 15.065V8.97903L13.8688 5.91903V11.529C13.8234 11.6877 13.7668 11.8294 13.6988 11.954C13.6081 12.124 13.5004 12.2374 13.3758 12.294Z" fill="#030712"/>
</svg>
