<svg width="16" height="15" viewBox="0 0 16 15" fill="none" xmlns="http://www.w3.org/2000/svg">
<path d="M5.83228 0.228022H2.08828C1.70428 0.228022 1.38328 0.348022 1.12528 0.588021C0.867281 0.828022 0.738281 1.13402 0.738281 1.50602V5.25002C0.738281 5.62202 0.870281 5.94002 1.13428 6.20402C1.39828 6.46802 1.71628 6.60002 2.08828 6.60002H5.83228C6.21628 6.60002 6.53728 6.46802 6.79528 6.20402C7.05328 5.94002 7.18228 5.62202 7.18228 5.25002V1.50602C7.18228 1.13402 7.05328 0.828022 6.79528 0.588021C6.53728 0.348022 6.21628 0.228022 5.83228 0.228022ZM5.97628 5.25002C5.97628 5.28602 5.96128 5.31902 5.93128 5.34902C5.90128 5.37902 5.86828 5.39402 5.83228 5.39402H2.08828C2.05228 5.43002 2.01628 5.42702 1.98028 5.38502C1.94428 5.34302 1.92628 5.29802 1.92628 5.25002V1.50602C1.92628 1.45802 1.94428 1.41902 1.98028 1.38902C2.01628 1.35902 2.05228 1.34402 2.08828 1.34402H5.83228C5.86828 1.34402 5.90128 1.35902 5.93128 1.38902C5.96128 1.41902 5.97628 1.45802 5.97628 1.50602V5.25002ZM14.0763 0.228022H10.3323C9.96028 0.228022 9.64228 0.357021 9.37828 0.615022C9.11428 0.873021 8.98228 1.19402 8.98228 1.57802V5.32202C8.98228 5.69402 9.11428 6.01202 9.37828 6.27602C9.64228 6.54002 9.96028 6.67202 10.3323 6.67202H14.0763C14.4603 6.67202 14.7813 6.54002 15.0393 6.27602C15.2973 6.01202 15.4263 5.69402 15.4263 5.32202V1.50602C15.4263 1.13402 15.2973 0.828022 15.0393 0.588021C14.7813 0.348022 14.4603 0.228022 14.0763 0.228022ZM14.2383 5.25002C14.2383 5.28602 14.2233 5.31902 14.1933 5.34902C14.1633 5.37902 14.1243 5.39402 14.0763 5.39402H10.3323C10.2963 5.39402 10.2633 5.37902 10.2333 5.34902C10.2033 5.31902 10.1883 5.28602 10.1883 5.25002V1.50602C10.1883 1.45802 10.2033 1.41902 10.2333 1.38902C10.2633 1.35902 10.2963 1.34402 10.3323 1.34402H14.0763C14.1243 1.34402 14.1633 1.35902 14.1933 1.38902C14.2233 1.41902 14.2383 1.45802 14.2383 1.50602V5.25002ZM14.0763 8.47202H10.3323C9.96028 8.47202 9.64228 8.60102 9.37828 8.85902C9.11428 9.11702 8.98228 9.43802 8.98228 9.82202V13.566C8.98228 13.95 9.11428 14.274 9.37828 14.538C9.64228 14.802 9.96028 14.934 10.3323 14.934H14.0763C14.4483 14.934 14.7663 14.802 15.0303 14.538C15.2943 14.274 15.4263 13.95 15.4263 13.566V9.82202C15.4263 9.41402 15.2973 9.08702 15.0393 8.84102C14.7813 8.59502 14.4603 8.47202 14.0763 8.47202ZM14.2383 13.494C14.2383 13.53 14.2233 13.566 14.1933 13.602C14.1633 13.638 14.1243 13.656 14.0763 13.656H10.3323C10.2963 13.656 10.2633 13.638 10.2333 13.602C10.2033 13.566 10.1883 13.53 10.1883 13.494V9.75002C10.1883 9.71402 10.2033 9.68102 10.2333 9.65102C10.2633 9.62102 10.2963 9.60602 10.3323 9.60602H14.0763C14.1243 9.60602 14.1633 9.62102 14.1933 9.65102C14.2233 9.68102 14.2383 9.71402 14.2383 9.75002V13.494ZM5.83228 8.47202H2.08828C1.71628 8.47202 1.39828 8.60102 1.13428 8.85902C0.870281 9.11702 0.738281 9.43802 0.738281 9.82202V13.566C0.738281 13.95 0.870281 14.274 1.13428 14.538C1.39828 14.802 1.71628 14.934 2.08828 14.934H5.83228C6.20428 14.934 6.52228 14.802 6.78628 14.538C7.05028 14.274 7.18228 13.95 7.18228 13.566V9.82202C7.18228 9.41402 7.05328 9.08702 6.79528 8.84102C6.53728 8.59502 6.21628 8.47202 5.83228 8.47202ZM5.97628 13.494C5.97628 13.53 5.96128 13.566 5.93128 13.602C5.90128 13.638 5.86828 13.656 5.83228 13.656H2.08828C2.05228 13.656 2.01628 13.638 1.98028 13.602C1.94428 13.566 1.92628 13.53 1.92628 13.494V9.75002C1.92628 9.71402 1.94428 9.68102 1.98028 9.65102C2.01628 9.62102 2.05228 9.60602 2.08828 9.60602H5.83228C5.86828 9.60602 5.90128 9.62102 5.93128 9.65102C5.96128 9.68102 5.97628 9.71402 5.97628 9.75002V13.494Z" fill="#030712"/>
</svg>
