<svg width="16" height="16" viewBox="0 0 16 16" fill="none" xmlns="http://www.w3.org/2000/svg">
<path d="M5.75416 0.958002H2.01016C1.62616 0.958002 1.30516 1.078 1.04716 1.318C0.789156 1.558 0.660156 1.864 0.660156 2.236V5.98C0.660156 6.352 0.792156 6.67 1.05616 6.934C1.32016 7.198 1.63816 7.33 2.01016 7.33H5.75416C6.13816 7.33 6.45916 7.198 6.71716 6.934C6.97516 6.67 7.10416 6.352 7.10416 5.98V2.236C7.10416 1.864 6.97516 1.558 6.71716 1.318C6.45916 1.078 6.13816 0.958002 5.75416 0.958002ZM5.89816 5.98C5.89816 6.016 5.88316 6.049 5.85316 6.079C5.82316 6.109 5.79016 6.124 5.75416 6.124H2.01016C1.97416 6.16 1.93816 6.157 1.90216 6.115C1.86616 6.073 1.84816 6.028 1.84816 5.98V2.236C1.84816 2.188 1.86616 2.149 1.90216 2.119C1.93816 2.089 1.97416 2.074 2.01016 2.074H5.75416C5.79016 2.074 5.82316 2.089 5.85316 2.119C5.88316 2.149 5.89816 2.188 5.89816 2.236V5.98ZM13.9982 0.958002H10.2542C9.88216 0.958002 9.56416 1.087 9.30016 1.345C9.03616 1.603 8.90416 1.924 8.90416 2.308V6.052C8.90416 6.424 9.03616 6.742 9.30016 7.006C9.56416 7.27 9.88216 7.402 10.2542 7.402H13.9982C14.3822 7.402 14.7032 7.27 14.9612 7.006C15.2192 6.742 15.3482 6.424 15.3482 6.052V2.236C15.3482 1.864 15.2192 1.558 14.9612 1.318C14.7032 1.078 14.3822 0.958002 13.9982 0.958002ZM14.1602 5.98C14.1602 6.016 14.1452 6.049 14.1152 6.079C14.0852 6.109 14.0462 6.124 13.9982 6.124H10.2542C10.2182 6.124 10.1852 6.109 10.1552 6.079C10.1252 6.049 10.1102 6.016 10.1102 5.98V2.236C10.1102 2.188 10.1252 2.149 10.1552 2.119C10.1852 2.089 10.2182 2.074 10.2542 2.074H13.9982C14.0462 2.074 14.0852 2.089 14.1152 2.119C14.1452 2.149 14.1602 2.188 14.1602 2.236V5.98ZM13.9982 9.202H10.2542C9.88216 9.202 9.56416 9.331 9.30016 9.589C9.03616 9.847 8.90416 10.168 8.90416 10.552V14.296C8.90416 14.68 9.03616 15.004 9.30016 15.268C9.56416 15.532 9.88216 15.664 10.2542 15.664H13.9982C14.3702 15.664 14.6882 15.532 14.9522 15.268C15.2162 15.004 15.3482 14.68 15.3482 14.296V10.552C15.3482 10.144 15.2192 9.817 14.9612 9.571C14.7032 9.325 14.3822 9.202 13.9982 9.202ZM14.1602 14.224C14.1602 14.26 14.1452 14.296 14.1152 14.332C14.0852 14.368 14.0462 14.386 13.9982 14.386H10.2542C10.2182 14.386 10.1852 14.368 10.1552 14.332C10.1252 14.296 10.1102 14.26 10.1102 14.224V10.48C10.1102 10.444 10.1252 10.411 10.1552 10.381C10.1852 10.351 10.2182 10.336 10.2542 10.336H13.9982C14.0462 10.336 14.0852 10.351 14.1152 10.381C14.1452 10.411 14.1602 10.444 14.1602 10.48V14.224ZM5.75416 9.202H2.01016C1.63816 9.202 1.32016 9.331 1.05616 9.589C0.792156 9.847 0.660156 10.168 0.660156 10.552V14.296C0.660156 14.68 0.792156 15.004 1.05616 15.268C1.32016 15.532 1.63816 15.664 2.01016 15.664H5.75416C6.12616 15.664 6.44416 15.532 6.70816 15.268C6.97216 15.004 7.10416 14.68 7.10416 14.296V10.552C7.10416 10.144 6.97516 9.817 6.71716 9.571C6.45916 9.325 6.13816 9.202 5.75416 9.202ZM5.89816 14.224C5.89816 14.26 5.88316 14.296 5.85316 14.332C5.82316 14.368 5.79016 14.386 5.75416 14.386H2.01016C1.97416 14.386 1.93816 14.368 1.90216 14.332C1.86616 14.296 1.84816 14.26 1.84816 14.224V10.48C1.84816 10.444 1.86616 10.411 1.90216 10.381C1.93816 10.351 1.97416 10.336 2.01016 10.336H5.75416C5.79016 10.336 5.82316 10.351 5.85316 10.381C5.88316 10.411 5.89816 10.444 5.89816 10.48V14.224Z" fill="#111827"/>
</svg>
