<svg width="16" height="16" viewBox="0 0 16 16" fill="none" xmlns="http://www.w3.org/2000/svg">
  <path d="M5.75416 0.958002H2.01016C1.62616 0.958002 1.30516 1.078 1.04716 1.318C0.789156 1.558 0.660156 1.864 0.660156 2.236V5.98C0.660156 6.352 0.792156 6.67 1.05616 6.934C1.32016 7.198 1.63816 7.33 2.01016 7.33H5.75416C6.13816 7.33 6.45916 7.198 6.71716 6.934C6.97516 6.67 7.10416 6.352 7.10416 5.98V2.236C7.10416 1.864 6.97516 1.558 6.71716 1.318C6.45916 1.078 6.13816 0.958002 5.75416 0.958002ZM5.89816 5.98C5.89816 6.016 5.88316 6.049 5.85316 6.079C5.82316 6.109 5.79016 6.124 5.75416 6.124H2.01016C1.97416 6.16 1.93816 6.157 1.90216 6.115C1.86616 6.073 1.84816 6.028 1.84816 5.98V2.236C1.84816 2.188 1.86616 2.149 1.90216 2.119C1.93816 2.089 1.97416 2.074 2.01016 2.074H5.75416C5.79016 2.074 5.82316 2.089 5.85316 2.119C5.88316 2.149 5.89816 2.188 5.89816 2.236V5.98ZM5.75416 9.202H2.01016C1.63816 9.202 1.32016 9.331 1.05616 9.589C0.792156 9.847 0.660156 10.168 0.660156 10.552V14.296C0.660156 14.68 0.792156 15.004 1.05616 15.268C1.32016 15.532 1.63816 15.664 2.01016 15.664H5.75416C6.12616 15.664 6.44416 15.532 6.70816 15.268C6.97216 15.004 7.10416 14.68 7.10416 14.296V10.552C7.10416 10.144 6.97516 9.817 6.71716 9.571C6.45916 9.325 6.13816 9.202 5.75416 9.202ZM5.89816 14.224C5.89816 14.26 5.88316 14.296 5.85316 14.332C5.82316 14.368 5.79016 14.386 5.75416 14.386H2.01016C1.97416 14.386 1.93816 14.368 1.90216 14.332C1.86616 14.296 1.84816 14.26 1.84816 14.224V10.48C1.84816 10.444 1.86616 10.411 1.90216 10.381C1.93816 10.351 1.97416 10.336 2.01016 10.336H5.75416C5.79016 10.336 5.82316 10.351 5.85316 10.381C5.88316 10.411 5.89816 10.444 5.89816 10.48V14.224ZM9.49816 2.83H14.7542C14.9102 2.83 15.0482 2.773 15.1682 2.659C15.2882 2.545 15.3482 2.404 15.3482 2.236C15.3482 2.068 15.2912 1.936 15.1772 1.84C15.0632 1.744 14.9222 1.696 14.7542 1.696H9.49816C9.34216 1.696 9.20416 1.753 9.08416 1.867C8.96416 1.981 8.90416 2.128 8.90416 2.308C8.90416 2.488 8.96116 2.62 9.07516 2.704C9.18916 2.788 9.33016 2.83 9.49816 2.83ZM14.7542 5.458H9.49816C9.34216 5.458 9.20416 5.512 9.08416 5.62C8.96416 5.728 8.90416 5.875 8.90416 6.061C8.90416 6.247 8.95816 6.391 9.06616 6.493C9.17416 6.595 9.31816 6.646 9.49816 6.646H14.7542C14.9102 6.646 15.0482 6.592 15.1682 6.484C15.2882 6.376 15.3482 6.232 15.3482 6.052C15.3482 5.872 15.2882 5.728 15.1682 5.62C15.0482 5.512 14.9102 5.458 14.7542 5.458ZM14.7542 9.958H9.49816C9.34216 9.958 9.20416 10.012 9.08416 10.12C8.96416 10.228 8.90416 10.375 8.90416 10.561C8.90416 10.747 8.95816 10.891 9.06616 10.993C9.17416 11.095 9.31816 11.146 9.49816 11.146H14.7542C14.9102 11.146 15.0482 11.092 15.1682 10.984C15.2882 10.876 15.3482 10.732 15.3482 10.552C15.3482 10.372 15.2882 10.228 15.1682 10.12C15.0482 10.012 14.9102 9.958 14.7542 9.958ZM14.7542 13.702H9.49816C9.34216 13.702 9.20416 13.759 9.08416 13.873C8.96416 13.987 8.90416 14.131 8.90416 14.305C8.90416 14.479 8.95816 14.623 9.06616 14.737C9.17416 14.851 9.31816 14.908 9.49816 14.908H14.7542C14.9102 14.908 15.0482 14.851 15.1682 14.737C15.2882 14.623 15.3482 14.476 15.3482 14.296C15.3482 14.116 15.2882 13.972 15.1682 13.864C15.0482 13.756 14.9102 13.702 14.7542 13.702Z" fill="#111827"/>
</svg>
