<svg width="33" height="33" viewBox="0 0 33 33" fill="none" xmlns="http://www.w3.org/2000/svg">
<rect x="0.828125" y="0.689941" width="32" height="32" rx="6" fill="#3B5998"/>
<g clip-path="url(#clip0_6391_477)">
<path d="M24.5781 16.6899C24.5781 12.4087 21.1094 8.93994 16.8281 8.93994C12.5469 8.93994 9.07812 12.4087 9.07812 16.6899C9.07812 20.5581 11.9122 23.7643 15.6172 24.3462V18.9303H13.6484V16.6899H15.6172V14.9824C15.6172 13.0403 16.7734 11.9674 18.5444 11.9674C19.3925 11.9674 20.2794 12.1187 20.2794 12.1187V14.0249H19.3019C18.3394 14.0249 18.0391 14.6224 18.0391 15.2353V16.6899H20.1884L19.8447 18.9303H18.0391V24.3462C21.7441 23.7643 24.5781 20.5581 24.5781 16.6899Z" fill="white"/>
</g>
<defs>
<clipPath id="clip0_6391_477">
<rect width="16" height="16" fill="white" transform="translate(8.82812 8.68994)"/>
</clipPath>
</defs>
</svg>
