<svg width="33" height="33" viewBox="0 0 33 33" fill="none" xmlns="http://www.w3.org/2000/svg">
<rect x="0.199219" y="0.689941" width="32" height="32" rx="6" fill="#262626"/>
<path d="M16.2008 13.0962C14.2133 13.0962 12.6102 14.6993 12.6102 16.6868C12.6102 18.6743 14.2133 20.2774 16.2008 20.2774C18.1883 20.2774 19.7914 18.6743 19.7914 16.6868C19.7914 14.6993 18.1883 13.0962 16.2008 13.0962ZM16.2008 19.0212C14.9164 19.0212 13.8664 17.9743 13.8664 16.6868C13.8664 15.3993 14.9133 14.3524 16.2008 14.3524C17.4883 14.3524 18.5352 15.3993 18.5352 16.6868C18.5352 17.9743 17.4852 19.0212 16.2008 19.0212ZM20.7758 12.9493C20.7758 13.4149 20.4008 13.7868 19.9383 13.7868C19.4727 13.7868 19.1008 13.4118 19.1008 12.9493C19.1008 12.4868 19.4758 12.1118 19.9383 12.1118C20.4008 12.1118 20.7758 12.4868 20.7758 12.9493ZM23.1539 13.7993C23.1008 12.6774 22.8445 11.6837 22.0227 10.8649C21.2039 10.0462 20.2102 9.78992 19.0883 9.73367C17.932 9.66804 14.4664 9.66804 13.3102 9.73367C12.1914 9.78679 11.1977 10.043 10.3758 10.8618C9.55391 11.6805 9.30078 12.6743 9.24453 13.7962C9.17891 14.9524 9.17891 18.418 9.24453 19.5743C9.29766 20.6962 9.55391 21.6899 10.3758 22.5087C11.1977 23.3274 12.1883 23.5837 13.3102 23.6399C14.4664 23.7055 17.932 23.7055 19.0883 23.6399C20.2102 23.5868 21.2039 23.3305 22.0227 22.5087C22.8414 21.6899 23.0977 20.6962 23.1539 19.5743C23.2195 18.418 23.2195 14.9555 23.1539 13.7993ZM21.6602 20.8149C21.4164 21.4274 20.9445 21.8993 20.3289 22.1462C19.407 22.5118 17.2195 22.4274 16.2008 22.4274C15.182 22.4274 12.9914 22.5087 12.0727 22.1462C11.4602 21.9024 10.9883 21.4305 10.7414 20.8149C10.3758 19.893 10.4602 17.7055 10.4602 16.6868C10.4602 15.668 10.3789 13.4774 10.7414 12.5587C10.9852 11.9462 11.457 11.4743 12.0727 11.2274C12.9945 10.8618 15.182 10.9462 16.2008 10.9462C17.2195 10.9462 19.4102 10.8649 20.3289 11.2274C20.9414 11.4712 21.4133 11.943 21.6602 12.5587C22.0258 13.4805 21.9414 15.668 21.9414 16.6868C21.9414 17.7055 22.0258 19.8962 21.6602 20.8149Z" fill="white"/>
</svg>
