<svg width="33" height="33" viewBox="0 0 33 33" fill="none" xmlns="http://www.w3.org/2000/svg">
<rect x="0.890625" y="0.689941" width="32" height="32" rx="6" fill="#0077B5"/>
<path d="M22.8906 9.68994H10.8875C10.3375 9.68994 9.89062 10.1431 9.89062 10.6993V22.6806C9.89062 23.2368 10.3375 23.6899 10.8875 23.6899H22.8906C23.4406 23.6899 23.8906 23.2368 23.8906 22.6806V10.6993C23.8906 10.1431 23.4406 9.68994 22.8906 9.68994ZM14.1219 21.6899H12.0469V15.0087H14.125V21.6899H14.1219ZM13.0844 14.0962C12.4187 14.0962 11.8813 13.5556 11.8813 12.8931C11.8813 12.2306 12.4187 11.6899 13.0844 11.6899C13.7469 11.6899 14.2875 12.2306 14.2875 12.8931C14.2875 13.5587 13.75 14.0962 13.0844 14.0962ZM21.9 21.6899H19.825V18.4399C19.825 17.6649 19.8094 16.6681 18.7469 16.6681C17.6656 16.6681 17.5 17.5118 17.5 18.3837V21.6899H15.425V15.0087H17.4156V15.9212H17.4437C17.7219 15.3962 18.4 14.8431 19.4094 14.8431C21.5094 14.8431 21.9 16.2274 21.9 18.0274V21.6899Z" fill="white"/>
</svg>
