<svg width="26" height="26" viewBox="0 0 26 26" fill="none" xmlns="http://www.w3.org/2000/svg">
<path d="M22.3434 15.7356C21.13 15.6049 20.122 15.3343 19.3194 14.9236C18.7407 14.6996 18.148 14.6576 17.5414 14.7976C16.9347 14.9376 16.398 15.2129 15.9314 15.6236L14.8674 16.7996C12.5154 15.2689 10.574 13.3276 9.04338 10.9756L10.1074 9.9116C10.5554 9.4636 10.84 8.93626 10.9614 8.3296C11.0827 7.72293 11.0314 7.12093 10.8074 6.5236C10.4714 5.64627 10.238 4.63827 10.1074 3.4996C9.97672 2.73426 9.59872 2.09493 8.97338 1.5816C8.34805 1.06827 7.63405 0.811598 6.83138 0.811598H3.10738C2.52872 0.848932 2.01072 1.0356 1.55338 1.3716C1.09605 1.7076 0.741382 2.13693 0.489382 2.6596C0.237382 3.18226 0.130049 3.73293 0.167382 4.3116C0.354049 6.17826 0.764715 8.00293 1.39938 9.7856C2.03405 11.5683 2.87405 13.2436 3.91938 14.8116C5.78605 17.7609 8.19405 20.1689 11.1434 22.0356C12.73 23.0249 14.41 23.8369 16.1834 24.4716C17.9567 25.1063 19.7767 25.5449 21.6434 25.7876H22.0074C22.3994 25.7876 22.7914 25.7036 23.1834 25.5356C23.5754 25.3676 23.9207 25.1389 24.2194 24.8496C24.518 24.5603 24.7467 24.2196 24.9054 23.8276C25.064 23.4356 25.1434 23.0343 25.1434 22.6236V19.1236C25.1434 18.2649 24.882 17.5183 24.3594 16.8836C23.8367 16.2489 23.1647 15.8663 22.3434 15.7356ZM23.2674 19.0116V22.5116C23.2674 22.9036 23.118 23.2583 22.8194 23.5756C22.4834 23.8743 22.1287 24.0236 21.7554 24.0236H21.6434C19.926 23.8556 18.2554 23.4823 16.6314 22.9036C14.9514 22.3063 13.3927 21.5129 11.9554 20.5236C10.63 19.6649 9.39338 18.6616 8.24538 17.5136C7.09738 16.3656 6.08472 15.1196 5.20738 13.7756C4.27405 12.3196 3.51338 10.7703 2.92538 9.1276C2.33738 7.48493 1.93138 5.80493 1.70738 4.0876C1.76338 3.65827 1.93138 3.29893 2.21138 3.0096C2.49138 2.72026 2.82738 2.5756 3.21938 2.5756H6.83138C7.18605 2.5756 7.50805 2.7016 7.79738 2.9536C8.08672 3.2056 8.23138 3.4996 8.23138 3.8356C8.26872 4.32093 8.36205 4.86226 8.51138 5.4596C8.60472 5.83293 8.75405 6.37427 8.95938 7.0836L9.04338 7.3356C9.15538 7.63427 9.18338 7.91893 9.12738 8.1896C9.07138 8.46026 8.93138 8.68893 8.70738 8.8756L7.41938 10.2756C7.25138 10.3876 7.15338 10.5416 7.12538 10.7376C7.09738 10.9336 7.11138 11.1249 7.16738 11.3116C8.04472 12.8236 9.11338 14.2096 10.3734 15.4696C11.6334 16.7296 13.0194 17.7983 14.5314 18.6756C14.6994 18.7876 14.886 18.8249 15.0914 18.7876C15.2967 18.7503 15.4554 18.6663 15.5674 18.5356L17.1074 17.0236C17.294 16.8369 17.5367 16.7063 17.8354 16.6316C18.134 16.5569 18.3954 16.5756 18.6194 16.6876C19.702 17.1169 20.8687 17.3876 22.1194 17.4996C22.474 17.5556 22.7727 17.7376 23.0154 18.0456C23.258 18.3536 23.342 18.6756 23.2674 19.0116ZM14.8674 2.4356C16.3794 2.58493 17.7514 3.0516 18.9834 3.8356C20.2154 4.6196 21.2234 5.6276 22.0074 6.8596C22.7914 8.0916 23.258 9.4636 23.4074 10.9756C23.4074 11.1996 23.496 11.3909 23.6734 11.5496C23.8507 11.7083 24.0327 11.7876 24.2194 11.7876H24.3314C24.5554 11.7876 24.7467 11.6896 24.9054 11.4936C25.064 11.2976 25.1434 11.0783 25.1434 10.8356C24.9567 9.08093 24.3874 7.46626 23.4354 5.9916C22.5207 4.55427 21.3307 3.37827 19.8654 2.4636C18.4 1.54893 16.7807 0.998264 15.0074 0.811598C14.7647 0.811598 14.5454 0.890932 14.3494 1.0496C14.1534 1.20827 14.0554 1.39026 14.0554 1.5956C14.0554 1.80093 14.1347 1.99227 14.2934 2.1696C14.452 2.34693 14.6434 2.4356 14.8674 2.4356ZM14.0554 6.1876C13.9994 6.4116 14.046 6.62626 14.1954 6.8316C14.3447 7.03693 14.5314 7.1676 14.7554 7.2236C15.726 7.41026 16.5707 7.8676 17.2894 8.5956C18.008 9.3236 18.4887 10.1916 18.7314 11.1996C18.7874 11.4236 18.89 11.5963 19.0394 11.7176C19.1887 11.8389 19.3567 11.8996 19.5434 11.8996H19.6554C19.898 11.8436 20.0894 11.7129 20.2294 11.5076C20.3694 11.3023 20.4114 11.0783 20.3554 10.8356C20.1314 9.51027 19.5387 8.36226 18.5774 7.3916C17.616 6.42093 16.4634 5.78626 15.1194 5.4876C14.8767 5.4316 14.6527 5.46427 14.4474 5.5856C14.242 5.70693 14.1114 5.9076 14.0554 6.1876Z" fill="#111827"/>
</svg>
