<svg width="26" height="22" viewBox="0 0 26 22" fill="none" xmlns="http://www.w3.org/2000/svg">
<path d="M22.0842 0.635683H3.43616C2.85749 0.635683 2.31616 0.775682 1.81216 1.05568C1.30816 1.33568 0.906823 1.71835 0.608156 2.20368C0.30949 2.68902 0.160156 3.22102 0.160156 3.79968V17.7997C0.160156 18.3784 0.304823 18.9197 0.594156 19.4237C0.88349 19.9277 1.27549 20.329 1.77016 20.6277C2.26482 20.9264 2.82016 21.0757 3.43616 21.0757H22.0842C22.6628 21.0757 23.2042 20.931 23.7082 20.6417C24.2122 20.3524 24.6135 19.9604 24.9122 19.4657C25.2108 18.971 25.3602 18.4157 25.3602 17.7997V3.79968C25.3602 3.22102 25.2108 2.68902 24.9122 2.20368C24.6135 1.71835 24.2122 1.33568 23.7082 1.05568C23.2042 0.775682 22.6628 0.635683 22.0842 0.635683ZM3.43616 2.39968H22.0842C22.4948 2.39968 22.8308 2.53968 23.0922 2.81968C23.3535 3.09968 23.4842 3.42635 23.4842 3.79968V4.49968L13.4602 10.9117C13.2175 11.0237 12.9655 11.0797 12.7042 11.0797C12.4428 11.0797 12.1908 11.0237 11.9482 10.9117L2.03616 4.49968V3.79968C2.03616 3.38902 2.16682 3.05302 2.42816 2.79168C2.68949 2.53035 3.02549 2.39968 3.43616 2.39968ZM22.0842 19.3117H3.43616C3.04416 19.3117 2.71282 19.167 2.44216 18.8777C2.17149 18.5884 2.03616 18.2664 2.03616 17.9117V6.59968L11.1362 12.4237C11.5282 12.741 12.0695 12.8997 12.7602 12.8997C13.4508 12.8997 13.9922 12.741 14.3842 12.4237L23.4842 6.59968V17.7997C23.4842 18.2104 23.3535 18.565 23.0922 18.8637C22.8308 19.1624 22.4948 19.3117 22.0842 19.3117Z" fill="#111827"/>
</svg>
