<svg width="37" height="37" viewBox="0 0 37 37" fill="none" xmlns="http://www.w3.org/2000/svg">
<rect x="0.5" y="0.140137" width="36" height="36" rx="6" fill="white"/>
<g clip-path="url(#clip0_6314_4027)">
<path d="M21.4727 19.0701L21.8927 16.3551H19.2827V14.6001C19.2827 14.1801 19.3927 13.8451 19.6127 13.5951C19.8827 13.2851 20.2827 13.1301 20.8127 13.1301H21.9977V10.8201L21.3377 10.7301C20.8077 10.6701 20.3277 10.6401 19.8977 10.6401C19.1777 10.6401 18.5527 10.7826 18.0227 11.0676C17.4927 11.3526 17.0827 11.7701 16.7927 12.3201C16.5027 12.8701 16.3577 13.5301 16.3577 14.3001V16.3551H13.9727V19.0701H16.3577V25.6401H19.2827V19.0701H21.4727Z" fill="#1877F2"/>
</g>
<defs>
<clipPath id="clip0_6314_4027">
<rect width="15" height="15" fill="white" transform="matrix(1 0 0 -1 11 25.6401)"/>
</clipPath>
</defs>
</svg>
