<svg width="37" height="37" viewBox="0 0 37 37" fill="none" xmlns="http://www.w3.org/2000/svg">
<rect x="0.5" y="0.140137" width="36" height="36" rx="6" fill="white"/>
<path d="M18.6682 14.5399C18.0175 14.5399 17.4175 14.7026 16.8682 15.0279C16.3188 15.3533 15.8815 15.7906 15.5562 16.3399C15.2308 16.8893 15.0682 17.4893 15.0682 18.1399C15.0682 18.7906 15.2308 19.3906 15.5562 19.9399C15.8815 20.4893 16.3188 20.9239 16.8682 21.2439C17.4175 21.5639 18.0175 21.7239 18.6682 21.7239C19.3188 21.7239 19.9188 21.5639 20.4682 21.2439C21.0175 20.9239 21.4522 20.4893 21.7722 19.9399C22.0922 19.3906 22.2522 18.7906 22.2522 18.1399C22.2522 17.4893 22.0922 16.8893 21.7722 16.3399C21.4522 15.7906 21.0175 15.3533 20.4682 15.0279C19.9188 14.7026 19.3188 14.5399 18.6682 14.5399ZM18.6682 20.4759C18.2415 20.4759 17.8495 20.3719 17.4922 20.1639C17.1348 19.9559 16.8522 19.6706 16.6442 19.3079C16.4362 18.9453 16.3322 18.5559 16.3322 18.1399C16.3322 17.7239 16.4362 17.3346 16.6442 16.9719C16.8522 16.6093 17.1348 16.3239 17.4922 16.1159C17.8495 15.9079 18.2415 15.8039 18.6682 15.8039C19.0948 15.8039 19.4868 15.9079 19.8442 16.1159C20.2015 16.3239 20.4842 16.6066 20.6922 16.9639C20.9002 17.3213 21.0042 17.7133 21.0042 18.1399C21.0042 18.5666 20.9002 18.9586 20.6922 19.3159C20.4842 19.6733 20.1988 19.9559 19.8362 20.1639C19.4735 20.3719 19.0842 20.4759 18.6682 20.4759ZM23.2442 14.3959C23.2442 14.6306 23.1615 14.8306 22.9962 14.9959C22.8308 15.1613 22.6308 15.2439 22.3962 15.2439C22.1615 15.2439 21.9642 15.1613 21.8042 14.9959C21.6442 14.8306 21.5642 14.6306 21.5642 14.3959C21.5642 14.1613 21.6442 13.9639 21.8042 13.8039C21.9642 13.6439 22.1615 13.5639 22.3962 13.5639C22.6308 13.5639 22.8308 13.6439 22.9962 13.8039C23.1615 13.9639 23.2442 14.1613 23.2442 14.3959ZM25.6122 15.2439C25.5908 14.6359 25.5002 14.1079 25.3402 13.6599C25.1588 13.1479 24.8735 12.6999 24.4842 12.3159C24.0948 11.9319 23.6442 11.6493 23.1322 11.4679C22.6842 11.3079 22.1562 11.2119 21.5482 11.1799C20.9722 11.1479 20.0095 11.1319 18.6602 11.1319C17.3108 11.1319 16.3482 11.1479 15.7722 11.1799C15.1535 11.2119 14.6255 11.3079 14.1882 11.4679C13.6762 11.6493 13.2282 11.9319 12.8442 12.3159C12.4602 12.6999 12.1775 13.1479 11.9962 13.6599C11.8255 14.1079 11.7295 14.6359 11.7082 15.2439C11.6762 15.8199 11.6602 16.7826 11.6602 18.1319C11.6602 19.4813 11.6762 20.4439 11.7082 21.0199C11.7295 21.6279 11.8202 22.1559 11.9802 22.6039C12.1615 23.1159 12.4495 23.5693 12.8442 23.9639C13.2388 24.3586 13.6922 24.6413 14.2042 24.8119C14.6308 24.9719 15.1535 25.0626 15.7722 25.0839C16.3482 25.1266 17.3108 25.1479 18.6602 25.1479C20.0095 25.1479 20.9722 25.1266 21.5482 25.0839C22.1562 25.0626 22.6842 24.9719 23.1322 24.8119C23.6442 24.6306 24.0948 24.3453 24.4842 23.9559C24.8735 23.5666 25.1588 23.1159 25.3402 22.6039C25.5002 22.1559 25.5908 21.6279 25.6122 21.0199C25.6442 20.4439 25.6602 19.4839 25.6602 18.1399C25.6602 16.7959 25.6442 15.8306 25.6122 15.2439ZM24.1242 22.2679C24.0068 22.5666 23.8335 22.8333 23.6042 23.0679C23.3748 23.3026 23.1055 23.4786 22.7962 23.5959C22.4442 23.7346 21.8735 23.8253 21.0842 23.8679C20.6362 23.8893 19.9908 23.8946 19.1482 23.8839H18.1882C17.3455 23.8946 16.7002 23.8893 16.2522 23.8679C15.4522 23.8253 14.8815 23.7346 14.5402 23.5959C14.2308 23.4786 13.9615 23.3053 13.7322 23.0759C13.5028 22.8466 13.3295 22.5773 13.2122 22.2679C13.0735 21.9159 12.9828 21.3453 12.9402 20.5559C12.9188 20.1079 12.9135 19.4626 12.9242 18.6199V17.6599C12.9135 16.8173 12.9188 16.1719 12.9402 15.7239C12.9828 14.9239 13.0735 14.3533 13.2122 14.0119C13.3295 13.7026 13.5028 13.4333 13.7322 13.2039C13.9615 12.9746 14.2308 12.8013 14.5402 12.6839C14.8815 12.5453 15.4468 12.4546 16.2362 12.4119C16.6842 12.3906 17.3348 12.3853 18.1882 12.3959H19.1482C19.9908 12.3853 20.6362 12.3906 21.0842 12.4119C21.8735 12.4546 22.4442 12.5453 22.7962 12.6839C23.1055 12.8013 23.3748 12.9746 23.6042 13.2039C23.8335 13.4333 24.0068 13.7026 24.1242 14.0119C24.2628 14.3533 24.3535 14.9186 24.3962 15.7079C24.4175 16.1559 24.4228 16.8066 24.4122 17.6599V18.6199C24.4228 19.4626 24.4175 20.1079 24.3962 20.5559C24.3535 21.3453 24.2628 21.9159 24.1242 22.2679Z" fill="#FD1D1D"/>
</svg>
