<svg width="37" height="37" viewBox="0 0 37 37" fill="none" xmlns="http://www.w3.org/2000/svg">
<rect x="0.5" y="0.140137" width="36" height="36" rx="6" fill="white"/>
<g clip-path="url(#clip0_6314_4036)">
<path d="M15.0377 23.7651H12.3227V15.0051H15.0377V23.7651ZM13.6727 13.8051C13.3927 13.8051 13.1302 13.7326 12.8852 13.5876C12.6402 13.4426 12.4477 13.2501 12.3077 13.0101C12.1677 12.7701 12.0977 12.5051 12.0977 12.2151C12.0977 11.9251 12.1677 11.6601 12.3077 11.4201C12.4477 11.1801 12.6377 10.9901 12.8777 10.8501C13.1177 10.7101 13.3827 10.6401 13.6727 10.6401C13.9627 10.6401 14.2277 10.7101 14.4677 10.8501C14.7077 10.9901 14.8977 11.1801 15.0377 11.4201C15.1777 11.6601 15.2477 11.9251 15.2477 12.2151C15.2477 12.5051 15.1777 12.7701 15.0377 13.0101C14.8977 13.2501 14.7052 13.4426 14.4602 13.5876C14.2152 13.7326 13.9527 13.8051 13.6727 13.8051ZM25.2227 23.7651H22.5077V19.5051C22.5077 19.0451 22.4877 18.6951 22.4477 18.4551C22.3877 18.0651 22.2627 17.7651 22.0727 17.5551C21.8527 17.3051 21.5277 17.1801 21.0977 17.1801C20.4477 17.1801 19.9977 17.4101 19.7477 17.8701C19.5577 18.2201 19.4627 18.7401 19.4627 19.4301V23.7651H16.7477V15.0051H19.3577V16.1901H19.3877C19.5877 15.8101 19.8977 15.4901 20.3177 15.2301C20.7977 14.9301 21.3477 14.7801 21.9677 14.7801C22.8377 14.7801 23.5277 14.9651 24.0377 15.3351C24.4877 15.6651 24.8027 16.1601 24.9827 16.8201C25.1427 17.3701 25.2227 18.0801 25.2227 18.9501V23.7651Z" fill="#0077B5"/>
</g>
<defs>
<clipPath id="clip0_6314_4036">
<rect width="15" height="15" fill="white" transform="matrix(1 0 0 -1 11 25.6401)"/>
</clipPath>
</defs>
</svg>
