<svg width="37" height="37" viewBox="0 0 37 37" fill="none" xmlns="http://www.w3.org/2000/svg">
<rect x="0.5" y="0.140137" width="36" height="36" rx="6" fill="white"/>
<g clip-path="url(#clip0_6314_4030)">
<path d="M24.6152 15.08C24.6252 15.17 24.6302 15.305 24.6302 15.485C24.6302 16.525 24.4402 17.55 24.0602 18.56C23.6702 19.62 23.1102 20.56 22.3802 21.38C21.6002 22.26 20.6852 22.945 19.6352 23.435C18.4952 23.965 17.2452 24.23 15.8852 24.23C15.0252 24.23 14.1952 24.1125 13.3952 23.8775C12.5952 23.6425 11.8502 23.3 11.1602 22.85C11.4202 22.88 11.6702 22.895 11.9102 22.895C12.6102 22.895 13.2877 22.78 13.9427 22.55C14.5977 22.32 15.1902 21.995 15.7202 21.575C15.0502 21.565 14.4527 21.36 13.9277 20.96C13.4027 20.56 13.0402 20.055 12.8402 19.445C13.0402 19.475 13.2352 19.49 13.4252 19.49C13.7252 19.49 13.9952 19.455 14.2352 19.385C13.7652 19.295 13.3452 19.105 12.9752 18.815C12.6052 18.525 12.3127 18.1675 12.0977 17.7425C11.8827 17.3175 11.7752 16.86 11.7752 16.37V16.325C12.1852 16.565 12.6452 16.695 13.1552 16.715C12.7352 16.445 12.4027 16.0825 12.1577 15.6275C11.9127 15.1725 11.7902 14.685 11.7902 14.165C11.7902 13.605 11.9302 13.085 12.2102 12.605C12.9802 13.555 13.9052 14.31 14.9852 14.87C16.0952 15.44 17.2802 15.76 18.5402 15.83C18.4902 15.58 18.4652 15.345 18.4652 15.125C18.4652 14.565 18.6027 14.05 18.8777 13.58C19.1527 13.11 19.5252 12.7375 19.9952 12.4625C20.4652 12.1875 20.9802 12.05 21.5402 12.05C21.9802 12.05 22.3952 12.1375 22.7852 12.3125C23.1752 12.4875 23.5102 12.725 23.7902 13.025C24.5002 12.885 25.1502 12.635 25.7402 12.275C25.6302 12.635 25.4577 12.96 25.2227 13.25C24.9877 13.54 24.7102 13.78 24.3902 13.97C24.9602 13.91 25.5502 13.75 26.1602 13.49C25.7402 14.11 25.2252 14.64 24.6152 15.08Z" fill="#1DA1F2"/>
</g>
<defs>
<clipPath id="clip0_6314_4030">
<rect width="15" height="15" fill="white" transform="matrix(1 0 0 -1 11 25.6401)"/>
</clipPath>
</defs>
</svg>
