<svg width="41" height="15" viewBox="0 0 41 15" fill="none" xmlns="http://www.w3.org/2000/svg">
<mask id="mask0_6314_2672" style="mask-type:luminance" maskUnits="userSpaceOnUse" x="0" y="0" width="41" height="15">
<path d="M40.5 0.959961H0.5V14.96H40.5V0.959961Z" fill="white"/>
</mask>
<g mask="url(#mask0_6314_2672)">
<path d="M29.3 4.35967C30.2 4.35967 30.9 3.65967 30.9 2.75967C30.9 1.85967 30.2 1.15967 29.3 1.15967C28.4 1.15967 27.7 1.85967 27.7 2.75967C27.6 3.65967 28.3 4.35967 29.3 4.35967C29.3 4.45967 29.3 4.45967 29.3 4.35967ZM16.7 5.25967C16.6 5.45967 16.1 6.95967 14.8 8.55967V1.85967L11.4 2.55967V14.6597H14.8V10.9597C15.8 12.4597 16.3 14.6597 16.3 14.6597H20.4C20 12.9597 18.2 9.85967 18.2 9.85967C19.3 8.45967 20.1 6.95967 20.6 5.35967L16.7 5.25967ZM25.7 5.15967C22.6 5.25967 21.1 6.65967 21.1 9.35967V14.6597H24.5V10.3597C24.5 8.75967 24.7 8.05967 26.7 7.95967V5.25967C26.3 5.15967 25.7 5.15967 25.7 5.15967ZM5.6 6.65967C5.2 6.65967 4.2 6.55967 4.2 5.65967C4.2 4.55967 5.6 4.55967 6.1 4.55967C7 4.55967 8.2 4.85967 9.1 5.05967C9.4 5.15967 9.7 5.25967 10 5.35967V2.55967H9.9C8.9 2.15967 7.7 1.85967 5.5 1.85967C1.8 1.85967 0.5 4.05967 0.5 5.95967C0.5 7.05967 1 9.55967 5.3 9.85967C5.7 9.85967 6.6 9.95967 6.6 10.8597C6.6 11.5597 5.8 12.0597 4.5 12.0597C3 12.0597 1.6 11.6597 0.8 11.3597V14.3597C2.1 14.6597 3.5 14.8597 5.2 14.8597C8.9 14.8597 10.5 12.7597 10.5 10.7597C10.5 8.35967 8.7 6.85967 5.6 6.65967ZM27.6 14.6597H30.9V5.25967H27.6V14.6597ZM37.2 2.45967V14.6597H40.5V1.85967L37.2 2.45967ZM32.3 2.45967L35.6 1.85967V14.6597H32.3V2.45967Z" fill="#862565"/>
</g>
</svg>
