<svg width="24" height="16" viewBox="0 0 24 16" fill="none" xmlns="http://www.w3.org/2000/svg">
<mask id="mask0_6314_2655" style="mask-type:luminance" maskUnits="userSpaceOnUse" x="0" y="0" width="24" height="16">
<path d="M24 0.560059H0V15.3601H24V0.560059Z" fill="white"/>
</mask>
<g mask="url(#mask0_6314_2655)">
<path d="M7.4 15.3601C11.4869 15.3601 14.8 12.047 14.8 7.96006C14.8 3.87315 11.4869 0.560059 7.4 0.560059C3.31309 0.560059 0 3.87315 0 7.96006C0 12.047 3.31309 15.3601 7.4 15.3601Z" fill="#DD3D31"/>
<path d="M16.5992 15.3601C20.6861 15.3601 23.9992 12.047 23.9992 7.96006C23.9992 3.87315 20.6861 0.560059 16.5992 0.560059C12.5123 0.560059 9.19922 3.87315 9.19922 7.96006C9.19922 12.047 12.5123 15.3601 16.5992 15.3601Z" fill="#EEB046"/>
<path fill-rule="evenodd" clip-rule="evenodd" d="M11.999 13.8602C15.199 11.3602 15.799 6.66016 13.299 3.46016C12.899 2.96016 12.499 2.56016 11.999 2.16016C8.79892 4.66016 8.19892 9.36016 10.699 12.5602C11.099 13.0602 11.499 13.4602 11.999 13.8602Z" fill="#EF7D2F"/>
</g>
</svg>
