<svg width="64" height="15" viewBox="0 0 64 15" fill="none" xmlns="http://www.w3.org/2000/svg">
<mask id="mask0_6314_2687" style="mask-type:luminance" maskUnits="userSpaceOnUse" x="0" y="0" width="64" height="15">
<path d="M63.2 0.959961H0.5V14.96H63.2V0.959961Z" fill="white"/>
</mask>
<g mask="url(#mask0_6314_2687)">
<path d="M11.5993 0.959961H8.59922C8.59922 3.45996 7.39922 5.75996 5.39922 7.25996L4.19922 8.25996L8.89922 14.6599H12.7993L8.39922 8.75996C10.4993 6.75996 11.5993 3.95996 11.5993 0.959961Z" fill="black"/>
<path d="M3.79922 0.959961H0.699219V14.6599H3.79922V0.959961Z" fill="black"/>
<path d="M16.6992 0.959961H13.6992V14.6599H16.6992V0.959961Z" fill="black"/>
<path d="M42.5984 4.95996C41.4984 4.95996 40.3984 5.25996 39.6984 6.25996V5.25996H36.8984V14.6599H39.7984V9.65996C39.7984 8.25996 40.7984 7.55996 41.8984 7.55996C43.0984 7.55996 43.8984 8.25996 43.8984 9.65996V14.6599H46.6984V8.65996C46.5984 6.45996 44.8984 4.95996 42.5984 4.95996Z" fill="black"/>
<path d="M25.6008 5.25996V5.85996C24.8008 5.25996 23.8008 4.95996 22.8008 4.95996C20.0008 4.95996 17.8008 7.15996 17.8008 9.95996C17.8008 12.7599 20.0008 14.9599 22.8008 14.9599C23.8008 14.9599 24.8008 14.6599 25.6008 14.0599V14.6599H28.4008V5.25996H25.6008ZM23.0008 12.3599C21.6008 12.3599 20.4008 11.2599 20.4008 9.95996C20.4008 8.65996 21.5008 7.55996 23.0008 7.55996C24.5008 7.55996 25.6008 8.65996 25.6008 9.95996C25.6008 11.2599 24.4008 12.3599 23.0008 12.3599Z" fill="black"/>
<path d="M32.7984 6.46025V5.26025H29.8984V14.6603H32.7984V10.2603C32.7984 8.76025 34.3984 7.96025 35.4984 7.96025V5.26025C34.3984 5.26025 33.3984 5.66025 32.7984 6.46025Z" fill="black"/>
<path d="M55.3977 5.25996V5.85996C54.5977 5.25996 53.6977 4.95996 52.5977 4.95996C49.7977 4.95996 47.5977 7.15996 47.5977 9.95996C47.5977 12.7599 49.7977 14.9599 52.5977 14.9599C53.5977 14.9599 54.5977 14.6599 55.3977 14.0599V14.6599H58.1977V5.25996H55.3977ZM52.8977 12.3599C51.4977 12.3599 50.2977 11.2599 50.2977 9.95996C50.2977 8.65996 51.3977 7.55996 52.8977 7.55996C54.2977 7.55996 55.4977 8.65996 55.4977 9.95996C55.3977 11.2599 54.2977 12.3599 52.8977 12.3599Z" fill="black"/>
<path d="M60.3984 5.46025C60.3984 5.36025 60.2984 5.26025 60.1984 5.26025H59.8984V5.96025H59.9984V5.76025H60.0984L60.2984 5.96025H60.3984L60.2984 5.66025C60.3984 5.66025 60.3984 5.56025 60.3984 5.46025ZM60.1984 5.56025H60.0984V5.36025H60.1984C60.2984 5.36025 60.2984 5.36025 60.2984 5.46025C60.2984 5.56025 60.2984 5.56025 60.1984 5.56025Z" fill="black"/>
<path d="M60.2 4.95996C59.8 4.95996 59.5 5.25996 59.5 5.65996C59.5 6.05996 59.8 6.35996 60.2 6.35996C60.6 6.35996 60.9 6.05996 60.9 5.65996C60.9 5.25996 60.5 4.95996 60.2 4.95996ZM60.2 6.15996C59.9 6.15996 59.7 5.95996 59.7 5.55996C59.7 5.25996 59.9 4.95996 60.2 4.95996C60.5 4.95996 60.7 5.15996 60.7 5.55996C60.7 5.95996 60.4 6.15996 60.2 6.15996Z" fill="black"/>
<path d="M61.3 11.3599C60.3 11.3599 59.5 12.1599 59.5 13.1599C59.5 14.1599 60.3 14.9599 61.3 14.9599C62.3 14.9599 63.1 14.1599 63.1 13.1599C63.1 12.0599 62.3 11.3599 61.3 11.3599Z" fill="black"/>
</g>
</svg>
