<svg width="53" height="15" viewBox="0 0 53 15" fill="none" xmlns="http://www.w3.org/2000/svg">
<mask id="mask0_6314_2666" style="mask-type:luminance" maskUnits="userSpaceOnUse" x="0" y="0" width="53" height="15">
<path d="M52.5 0.959961H0V14.96H52.5V0.959961Z" fill="white"/>
</mask>
<g mask="url(#mask0_6314_2666)">
<path d="M6.639 1.07227H2.614C2.339 1.07227 2.1015 1.27226 2.064 1.54725L0.438998 11.8472C0.401498 12.0472 0.563998 12.2347 0.776498 12.2347H2.7015C2.9765 12.2347 3.214 12.0348 3.2515 11.7598L3.689 8.98475C3.7265 8.70975 3.964 8.50976 4.239 8.50976H5.5015C8.1515 8.50976 9.6765 7.23477 10.0765 4.68477C10.2515 3.57227 10.089 2.69726 9.564 2.08476C8.989 1.43476 7.9765 1.07227 6.639 1.07227ZM7.1015 4.84726C6.8765 6.28476 5.7765 6.28476 4.714 6.28476H4.1015L4.5265 3.59726C4.5515 3.43476 4.689 3.30977 4.8515 3.30977H5.1265C5.8515 3.30977 6.539 3.30976 6.889 3.72226C7.114 3.97226 7.1765 4.33476 7.1015 4.84726Z" fill="#283B82"/>
<path d="M18.6523 4.79736H16.7273C16.5648 4.79736 16.4273 4.92237 16.4023 5.08487L16.3148 5.62238L16.1773 5.42236C15.7648 4.82236 14.8273 4.60986 13.9023 4.60986C11.7773 4.60986 9.96476 6.22236 9.60226 8.48486C9.41476 9.60986 9.67726 10.6849 10.3148 11.4474C10.9023 12.1349 11.7398 12.4223 12.7398 12.4223C14.4523 12.4223 15.4023 11.3224 15.4023 11.3224L15.3148 11.8598C15.2773 12.0598 15.4398 12.2474 15.6398 12.2474H17.3773C17.6523 12.2474 17.8898 12.0474 17.9273 11.7724L18.9648 5.18488C19.0148 4.98488 18.8523 4.79736 18.6523 4.79736ZM15.9648 8.54736C15.7773 9.64736 14.9023 10.3849 13.7898 10.3849C13.2273 10.3849 12.7898 10.2099 12.5023 9.85986C12.2148 9.52236 12.1148 9.04737 12.2023 8.50987C12.3773 7.42237 13.2648 6.65987 14.3648 6.65987C14.9148 6.65987 15.3523 6.84738 15.6523 7.18488C15.9273 7.52238 16.0523 8.00986 15.9648 8.54736Z" fill="#283B82"/>
<path d="M28.9013 4.79736H26.9638C26.7763 4.79736 26.6013 4.88486 26.5013 5.04736L23.8388 8.97237L22.7138 5.19737C22.6388 4.95987 22.4263 4.79736 22.1763 4.79736H20.2763C20.0513 4.79736 19.8888 5.02236 19.9638 5.23486L22.0888 11.4849L20.0888 14.3099C19.9263 14.5349 20.0888 14.8349 20.3638 14.8349H22.3013C22.4888 14.8349 22.6513 14.7474 22.7638 14.5974L29.2013 5.30988C29.3263 5.09738 29.1638 4.79736 28.9013 4.79736Z" fill="#283B82"/>
<path d="M35.3031 1.07227H31.2781C31.0031 1.07227 30.7656 1.27226 30.7281 1.54725L29.1031 11.8472C29.0656 12.0472 29.2281 12.2347 29.4281 12.2347H31.5031C31.6906 12.2347 31.8531 12.0972 31.8906 11.9097L32.3531 8.98475C32.3906 8.70975 32.6281 8.50976 32.9031 8.50976H34.1781C36.8281 8.50976 38.3531 7.23477 38.7531 4.68477C38.9281 3.57227 38.7656 2.69726 38.2406 2.08476C37.6656 1.43476 36.6531 1.07227 35.3031 1.07227ZM35.7656 4.84726C35.5406 6.28476 34.4406 6.28476 33.3781 6.28476H32.7781L33.2031 3.59726C33.2281 3.43476 33.3656 3.30977 33.5281 3.30977H33.8031C34.5281 3.30977 35.2156 3.30976 35.5656 3.72226C35.7781 3.97226 35.8406 4.33476 35.7656 4.84726Z" fill="#469BDB"/>
<path d="M47.3124 4.79736H45.3874C45.2249 4.79736 45.0874 4.92237 45.0624 5.08487L44.9749 5.62238L44.8374 5.42236C44.4249 4.82236 43.4874 4.60986 42.5624 4.60986C40.4374 4.60986 38.6249 6.22236 38.2624 8.48486C38.0749 9.60986 38.3374 10.6849 38.9749 11.4474C39.5624 12.1349 40.3999 12.4223 41.3999 12.4223C43.1124 12.4223 44.0624 11.3224 44.0624 11.3224L43.9749 11.8598C43.9374 12.0598 44.0999 12.2474 44.3124 12.2474H46.0499C46.3249 12.2474 46.5624 12.0474 46.5999 11.7724L47.6374 5.18488C47.6749 4.98488 47.5124 4.79736 47.3124 4.79736ZM44.6249 8.54736C44.4374 9.64736 43.5624 10.3849 42.4499 10.3849C41.8874 10.3849 41.4499 10.2099 41.1624 9.85986C40.8749 9.52236 40.7749 9.04737 40.8624 8.50987C41.0374 7.42237 41.9249 6.65987 43.0249 6.65987C43.5749 6.65987 44.0124 6.84738 44.3124 7.18488C44.5999 7.52238 44.7124 8.00986 44.6249 8.54736Z" fill="#469BDB"/>
<path d="M49.5773 1.35984L47.9273 11.8599C47.8898 12.0599 48.0523 12.2474 48.2523 12.2474H49.9148C50.1898 12.2474 50.4273 12.0474 50.4648 11.7724L52.0898 1.47235C52.1273 1.27234 51.9648 1.08485 51.7648 1.08485H49.9023C49.7523 1.07235 49.6148 1.19734 49.5773 1.35984Z" fill="#469BDB"/>
</g>
</svg>
