<svg width="36" height="12" viewBox="0 0 36 12" fill="none" xmlns="http://www.w3.org/2000/svg">
<path d="M31.6008 4.26006L32.2008 7.46006H29.8008L31.0008 4.36006L31.2008 3.76006L31.3008 3.26006C31.3008 3.36006 31.6008 4.26006 31.6008 4.26006ZM8.90078 11.3601L13.3008 0.460064H10.3008L7.60078 7.96006L7.30078 6.36006L6.30078 1.36006C6.20078 0.760064 5.70078 0.360064 4.90078 0.360064H0.400781L0.300781 0.560064C1.50078 0.760064 2.40078 1.16006 3.30078 1.76006L5.90078 11.4601H9.00078L8.90078 11.3601ZM15.6008 11.3601L17.4008 0.460064H14.6008L12.8008 11.5601H15.6008V11.3601ZM25.7008 7.86006C25.7008 6.66006 24.9008 5.66006 23.3008 4.76006C22.1008 4.26006 21.5008 3.86006 21.5008 3.46006C21.5008 2.86006 22.1008 2.56006 23.3008 2.56006C24.0008 2.56006 24.7008 2.56006 25.3008 3.06006H25.7008L26.0008 0.560064C25.1008 0.160059 24.3008 0.0600586 23.4008 0.0600586C22.5008 0.0600586 21.7008 0.260059 21.0008 0.560064C20.3008 0.860064 19.7008 1.26006 19.2008 1.86006C18.8008 2.46006 18.6008 3.06006 18.6008 3.76006C18.6008 4.96006 19.4008 5.96006 21.2008 6.86006C22.1008 7.36006 22.6008 7.76005 22.6008 8.16005C22.6008 8.86005 22.0008 9.36006 20.9008 9.36006C20.0008 9.36006 19.0008 9.16006 18.2008 8.76006L17.8008 8.56006L17.3008 10.9601C18.3008 11.3601 19.4008 11.6601 20.5008 11.6601C21.8008 11.7601 23.0008 11.3601 24.0008 10.7601C25.2008 9.96006 25.7008 8.96006 25.7008 7.86006ZM35.7008 11.3601L33.4008 0.460064H31.2008C30.5008 0.460064 30.0008 0.660064 29.8008 1.36006L25.5008 11.5601H28.5008L29.0008 9.96006H32.8008L33.2008 11.6601H35.8008V11.3601H35.7008Z" fill="url(#paint0_linear_6314_2643)"/>
<defs>
<linearGradient id="paint0_linear_6314_2643" x1="1.58268" y1="5.86846" x2="35.2457" y2="5.86846" gradientUnits="userSpaceOnUse">
<stop stop-color="#2C3572"/>
<stop offset="1" stop-color="#3C62AB"/>
</linearGradient>
</defs>
</svg>
